.
 
http://www.scenetime.com    -  Hottest private tracker on the net. !!!

Sign up will close shortly !!  Join now 

        Seed back for speed


...................................NFO:.................................................








































          
          
              
              
                    
                    
                    
                    

Conan.the.Barbarian.2011.CAM.Xvid-SiC

Poster:
[img]http://img62.imageshack.us/img62/161/mv5bmtq1nduyodk5nf5bml5.jpg[/img]

IMDB Link:
http://www.imdb.com/title/tt0816462/

Description:
The tale of Conan the Cimmerian and his adventures across the continent of
Hyboria on a quest to avenge the murder of his father and the slaughter 
of his village. 

MediaInfo:
General
Complete name                    : Conan.the.Barbarian.2011.CAM.Xvid-SiC.avi
Format                           : AVI
Format/Info                      : Audio Video Interleave
File size                        : 1 018 MiB
Duration                         : 1h 39mn
Overall bit rate                 : 1 429 Kbps

Video
ID                               : 0
Format                           : MPEG-4 Visual
Format profile                   : Advanced Simple@L5
Format settings, BVOP            : Yes
Format settings, QPel            : No
Format settings, GMC             : No warppoints
Format settings, Matrix          : Default (H.263)
Muxing mode                      : Packed bitstream
Codec ID                         : XVID
Codec ID/Hint                    : XviD
Duration                         : 1h 39mn
Bit rate                         : 1 295 Kbps
Width                            : 720 pixels
Height                           : 336 pixels
Display aspect ratio             : 2.2:1
Frame rate                       : 25.000 fps
Resolution                       : 8 bits
Colorimetry                      : 4:2:0
Scan type                        : Progressive
Bits/(Pixel*Frame)               : 0.214
Stream size                      : 922 MiB (91%)
Writing library                  : XviD 64

Audio
ID                               : 1
Format                           : MPEG Audio
Format version                   : Version 1
Format profile                   : Layer 3
Mode                             : Joint stereo
Format_Settings_ModeExtension    : MS Stereo
Codec ID                         : 55
Codec ID/Hint                    : MP3
Duration                         : 1h 39mn
Bit rate mode                    : Constant
Bit rate                         : 128 Kbps
Channel(s)                       : 2 channels
Sampling rate                    : 44.1 KHz
Stream size                      : 91.1 MiB (9%)
Alignment                        : Aligned on interleaves
Interleave, duration             : 160 ms (4.00 video frames)
Interleave, preload duration     : 208 ms
Title                            : 2ch English
Writing library                  : LAME3.98r
Encoding settings                : -m j -V 4 -q 2 -lowpass 17
Note :   

Source : CAM-RelizLab Thanks!!!
Audio Source : IMAGiNE Thanks!!!

Encoder: Bezauk

Enjoy!

Respects to CaptainHomey, Cyanide, CM8, Rx, THC, ELEKTRI4KA, 
Killerhz, PA, YeFsTe, BoxSlots, MrRep and everyone in the struggle...